<?xml version="1.0" encoding="UTF-8"?>
<!DOCTYPE svg PUBLIC "-//W3C//DTD SVG 1.1//EN" "http://www.w3.org/Graphics/SVG/1.1/DTD/svg11.dtd">
<svg xmlns="http://www.w3.org/2000/svg" version="1.1" width="1080px" height="1080px" style="shape-rendering:geometricPrecision; text-rendering:geometricPrecision; image-rendering:optimizeQuality; fill-rule:evenodd; clip-rule:evenodd" xmlns:xlink="http://www.w3.org/1999/xlink">
<g><path style="opacity:0.962" fill="#060505" d="M 533.5,106.5 C 676.833,106.5 820.167,106.5 963.5,106.5C 963.5,160.833 963.5,215.167 963.5,269.5C 949.013,268.919 934.68,270.086 920.5,273C 907.355,276.745 901.188,285.579 902,299.5C 901.333,364.167 901.333,428.833 902,493.5C 901.568,502.298 904.401,509.798 910.5,516C 919.66,520.361 929.326,522.694 939.5,523C 947.493,523.5 955.493,523.666 963.5,523.5C 963.5,577.833 963.5,632.167 963.5,686.5C 810.5,686.667 657.5,686.5 504.5,686C 476.57,686.448 449.403,682.281 423,673.5C 422.5,718.832 422.333,764.165 422.5,809.5C 449.861,809.917 477.194,809.417 504.5,808C 514.008,806.825 520.175,801.658 523,792.5C 525.743,784.044 527.409,775.377 528,766.5C 529.071,751.184 529.571,735.851 529.5,720.5C 580.833,720.5 632.167,720.5 683.5,720.5C 683.5,804.5 683.5,888.5 683.5,972.5C 494.167,972.5 304.833,972.5 115.5,972.5C 115.5,918.167 115.5,863.833 115.5,809.5C 129.987,810.081 144.32,808.914 158.5,806C 171.645,802.255 177.812,793.421 177,779.5C 177.667,715.167 177.667,650.833 177,586.5C 177.595,577.353 174.762,569.519 168.5,563C 159.34,558.639 149.674,556.306 139.5,556C 131.507,555.5 123.507,555.334 115.5,555.5C 115.5,501.167 115.5,446.833 115.5,392.5C 207.501,392.667 299.501,392.5 391.5,392C 353.07,371.197 330.57,339.031 324,295.5C 319.24,260.802 322.24,226.802 333,193.5C 347.405,163.096 370.238,141.596 401.5,129C 428.74,117.774 457.073,111.107 486.5,109C 502.322,108.115 517.989,107.282 533.5,106.5 Z M 601.5,269.5 C 619.833,269.5 638.167,269.5 656.5,269.5C 656.5,298.167 656.5,326.833 656.5,355.5C 635.803,355.886 615.136,355.386 594.5,354C 581.12,352.62 572.62,345.453 569,332.5C 565.253,316.627 565.92,300.961 571,285.5C 573.114,281.052 576.281,277.552 580.5,275C 587.379,272.198 594.379,270.365 601.5,269.5 Z M 604.5,444.5 C 621.833,444.5 639.167,444.5 656.5,444.5C 656.5,470.833 656.5,497.167 656.5,523.5C 639.163,523.667 621.83,523.5 604.5,523C 593.509,521.595 586.009,515.762 582,505.5C 575.494,488.715 576.494,472.382 585,456.5C 589.895,449.807 596.395,445.807 604.5,444.5 Z"/></g>
<g><path style="opacity:1" fill="#fefadf" d="M 470.5,404.5 C 471.833,404.5 473.167,404.5 474.5,404.5C 474.923,402.219 474.256,400.552 472.5,399.5C 434.05,399.903 400.05,388.07 370.5,364C 343.993,336.5 331.66,303.5 333.5,265C 328.361,202.906 354.361,160.24 411.5,137C 435.74,128.015 460.74,122.348 486.5,120C 641.824,118.531 797.157,118.031 952.5,118.5C 952.5,165.167 952.5,211.833 952.5,258.5C 938.489,257.959 924.822,259.793 911.5,264C 898.829,269.687 891.995,279.52 891,293.5C 890.333,362.167 890.333,430.833 891,499.5C 892.01,513.491 898.843,523.324 911.5,529C 924.793,533.573 938.46,535.406 952.5,534.5C 952.5,581.167 952.5,627.833 952.5,674.5C 795.833,674.667 639.166,674.5 482.5,674C 384.468,667.628 339.968,615.461 349,517.5C 355.343,455.488 389.176,418.655 450.5,407C 457.151,405.968 463.817,405.135 470.5,404.5 Z M 601.5,269.5 C 594.379,270.365 587.379,272.198 580.5,275C 576.281,277.552 573.114,281.052 571,285.5C 565.92,300.961 565.253,316.627 569,332.5C 572.62,345.453 581.12,352.62 594.5,354C 615.136,355.386 635.803,355.886 656.5,355.5C 656.5,326.833 656.5,298.167 656.5,269.5C 638.167,269.5 619.833,269.5 601.5,269.5 Z M 604.5,444.5 C 596.395,445.807 589.895,449.807 585,456.5C 576.494,472.382 575.494,488.715 582,505.5C 586.009,515.762 593.509,521.595 604.5,523C 621.83,523.5 639.163,523.667 656.5,523.5C 656.5,497.167 656.5,470.833 656.5,444.5C 639.167,444.5 621.833,444.5 604.5,444.5 Z"/></g>
<g><path style="opacity:0.969" fill="#020201" d="M 600.5,258.5 C 622.833,258.5 645.167,258.5 667.5,258.5C 667.5,294.5 667.5,330.5 667.5,366.5C 644.831,366.667 622.164,366.5 599.5,366C 572.807,364.306 558.307,350.14 556,323.5C 552.982,305.659 555.982,288.992 565,273.5C 574.899,263.707 586.732,258.707 600.5,258.5 Z M 601.5,269.5 C 594.379,270.365 587.379,272.198 580.5,275C 576.281,277.552 573.114,281.052 571,285.5C 565.92,300.961 565.253,316.627 569,332.5C 572.62,345.453 581.12,352.62 594.5,354C 615.136,355.386 635.803,355.886 656.5,355.5C 656.5,326.833 656.5,298.167 656.5,269.5C 638.167,269.5 619.833,269.5 601.5,269.5 Z"/></g>
<g><path style="opacity:1" fill="#7e7c6f" d="M 126.5,404.5 C 224.666,403.334 322.999,403.168 421.5,404C 420.473,404.513 419.473,405.013 418.5,405.5C 321.335,404.501 224.001,404.167 126.5,404.5 Z"/></g>
<g><path style="opacity:1" fill="#68665b" d="M 472.5,399.5 C 474.256,400.552 474.923,402.219 474.5,404.5C 473.167,404.5 471.833,404.5 470.5,404.5C 471.209,403.596 472.209,403.263 473.5,403.5C 473.567,402.041 473.234,400.708 472.5,399.5 Z"/></g>
<g><path style="opacity:1" fill="#fefadf" d="M 126.5,404.5 C 224.001,404.167 321.335,404.501 418.5,405.5C 377.618,420.887 352.118,449.887 342,492.5C 335.349,527.358 336.349,562.025 345,596.5C 355.865,630.699 377.865,654.699 411,668.5C 411.5,719.166 411.667,769.832 411.5,820.5C 443.525,820.922 475.525,820.422 507.5,819C 524.207,815.124 533.707,804.624 536,787.5C 539.575,769.007 541.075,750.341 540.5,731.5C 584.5,731.5 628.5,731.5 672.5,731.5C 672.5,807.833 672.5,884.167 672.5,960.5C 490.5,960.5 308.5,960.5 126.5,960.5C 126.5,913.833 126.5,867.167 126.5,820.5C 144.238,821.729 160.905,818.229 176.5,810C 183.391,803.352 187.225,795.185 188,785.5C 188.667,716.833 188.667,648.167 188,579.5C 187.007,565.522 180.174,555.689 167.5,550C 154.14,546.015 140.474,544.182 126.5,544.5C 126.5,497.833 126.5,451.167 126.5,404.5 Z"/></g>
<g><path style="opacity:0.968" fill="#010101" d="M 599.5,433.5 C 622.167,433.5 644.833,433.5 667.5,433.5C 667.5,467.167 667.5,500.833 667.5,534.5C 645.831,534.667 624.164,534.5 602.5,534C 586.748,532.035 576.248,523.535 571,508.5C 563.089,486.565 565.422,465.898 578,446.5C 583.928,439.96 591.094,435.626 599.5,433.5 Z M 604.5,444.5 C 596.395,445.807 589.895,449.807 585,456.5C 576.494,472.382 575.494,488.715 582,505.5C 586.009,515.762 593.509,521.595 604.5,523C 621.83,523.5 639.163,523.667 656.5,523.5C 656.5,497.167 656.5,470.833 656.5,444.5C 639.167,444.5 621.833,444.5 604.5,444.5 Z"/></g>
</svg>
